<?xml version="1.0" standalone="no"?>
<!DOCTYPE svg PUBLIC "-//W3C//DTD SVG 20010904//EN"
 "http://www.w3.org/TR/2001/REC-SVG-20010904/DTD/svg10.dtd">
<svg version="1.0" xmlns="http://www.w3.org/2000/svg"
 width="384.000000pt" height="384.000000pt" viewBox="0 0 384.000000 384.000000"
 preserveAspectRatio="xMidYMid meet">

<g transform="translate(0.000000,384.000000) scale(0.100000,-0.100000)"
fill="#000000" stroke="none">
<path d="M1755 3533 c-240 -30 -519 -139 -718 -280 -108 -77 -287 -256 -364
-366 -119 -169 -209 -373 -252 -570 -11 -49 -21 -90 -23 -92 -2 -2 -40 -17
-84 -34 -145 -56 -250 -138 -260 -203 -5 -29 -1 -41 25 -70 35 -40 140 -95
247 -130 l71 -23 17 -95 c93 -497 461 -944 938 -1137 232 -95 494 -136 715
-114 421 43 775 220 1040 521 179 204 324 493 365 728 10 60 16 73 33 77 253
48 336 120 279 241 -25 52 -118 129 -211 174 -60 30 -84 47 -88 63 -47 219
-79 317 -156 469 -74 147 -145 245 -273 376 -245 252 -531 400 -881 457 -82
14 -338 19 -420 8z m435 -159 c116 -20 307 -85 409 -140 181 -96 357 -248 479
-412 102 -137 220 -397 246 -540 5 -28 3 -32 -12 -28 -45 14 -250 57 -362 75
-194 32 -342 49 -521 61 -271 19 -263 17 -288 51 -17 23 -20 37 -15 67 7 39
32 67 138 158 l59 51 -79 131 c-74 123 -81 131 -110 132 -47 0 -59 22 -59 109
0 71 -3 81 -43 153 -24 43 -47 80 -52 83 -4 3 -29 -32 -55 -78 -47 -80 -48
-84 -46 -158 3 -86 -10 -109 -59 -109 -25 0 -36 -13 -107 -127 -43 -71 -78
-131 -78 -134 0 -3 38 -39 85 -80 102 -89 98 -83 106 -137 6 -38 3 -47 -19
-69 -23 -24 -33 -26 -188 -34 -295 -16 -669 -62 -933 -113 -67 -13 -122 -23
-124 -21 -8 7 44 180 78 263 128 307 376 571 675 720 147 73 324 123 525 146
59 7 260 -5 350 -20z m36 -1143 c137 -33 321 -75 409 -93 88 -18 153 -34 144
-36 -9 -2 -196 33 -416 77 -398 79 -399 79 -458 65 -97 -23 -746 -152 -795
-158 -78 -10 -32 2 210 53 129 28 321 72 425 99 105 27 199 50 211 51 11 0
133 -26 270 -58z m-1001 -33 c-55 -34 -179 -87 -265 -112 -57 -17 -88 -32 -80
-39 3 -2 101 -36 219 -76 216 -73 336 -121 446 -179 l60 -31 -70 4 c-295 20
-378 27 -510 41 -82 8 -226 25 -320 37 l-170 22 -3 95 c-5 143 -1 155 53 169
159 40 525 96 650 100 l40 1 -50 -32z m1816 -62 c64 -13 159 -36 212 -52 l97
-29 0 -91 0 -91 -97 -12 c-387 -48 -861 -94 -872 -85 -14 12 283 132 549 221
74 25 139 49 144 54 5 4 -18 15 -50 25 -68 19 -255 92 -267 103 -9 9 126 -11
284 -43z m-208 -43 c-7 -2 -19 -2 -25 0 -7 3 -2 5 12 5 14 0 19 -2 13 -5z
m-1786 -19 c-3 -3 -12 -4 -19 -1 -8 3 -5 6 6 6 11 1 17 -2 13 -5z m-662 -89
c0 -84 -5 -88 -70 -60 -44 18 -53 39 -29 67 18 19 83 66 94 67 3 1 5 -33 5
-74z m3168 -11 c74 -38 79 -66 14 -79 -18 -4 -40 -9 -49 -11 -16 -5 -18 2 -18
50 0 61 4 64 53 40z m-2647 -288 c223 -27 481 -51 681 -62 l123 -7 30 -54 c17
-29 53 -77 81 -106 45 -46 52 -59 62 -116 8 -48 8 -66 -1 -69 -27 -9 -62 -45
-81 -85 -40 -82 -19 -172 55 -236 29 -25 41 -45 45 -73 3 -21 3 -38 1 -38 -3
0 -28 14 -58 30 l-53 31 -31 -40 c-18 -22 -33 -42 -34 -45 0 -3 45 -43 101
-90 99 -83 104 -86 153 -86 50 0 55 3 155 86 l104 86 -31 39 c-17 21 -36 39
-41 39 -5 0 -32 -13 -58 -30 l-49 -30 0 48 c0 42 4 49 34 69 99 64 100 228 2
310 l-34 28 9 60 c9 52 16 66 63 115 30 31 68 81 85 112 l31 55 138 7 c191 10
690 60 857 86 102 17 97 23 69 -82 -68 -260 -188 -473 -368 -654 -206 -206
-451 -338 -746 -401 -129 -27 -400 -24 -540 6 -406 87 -740 332 -949 696 -73
128 -115 243 -155 426 l-6 26 74 -13 c40 -7 167 -24 282 -38z"/>
</g>
</svg>
